<svg xmlns="http://www.w3.org/2000/svg" viewBox="0 0 1000 1000"><g/><path fill="#CCC" d="M730.14 471.542c-4.328-10.563-22.18-38.298-28.716-49.423-2.788-4.75-5.703-10.65-7.967-15.47-1.875-4.06 4.15-6.6 5.99-8.4 1.838-1.8 3.677-3.92 2.97-10.28-.708-6.37-3.706-16.13-8.36-26.03-4.65-9.9-16.956-27.02-22.613-39.18s-12.305-32.11-12.73-35.64c-.423-3.54 2.407-15.28.71-22.77-1.698-7.5-7.072-10.33-8.77-14.43s-2.12-16.69-12.73-24.05c-10.606-7.36-21.497-14.29-28.286-19.8-6.788-5.52-15.273-12.45-30.406-14.01-15.134-1.56-28.712-3.11-39.178-3.54-10.465-.43-28.852 2.83-33.52 2.4s-6.787-2.55-14.425-3.82-11.15-3.78-33.38 0c-14.99 2.54-21.96 8.31-40.03 12.59-1.58.37-3.08.86-4.52 1.44h-.01c-10.54 4.25-17.12 13.12-17.12 13.12s-18.1 14.28-23.05 19.52c-4.95 5.23-9.48 9.19-10.61 9.33s-6.93 4.38-8.49 11.45c-1.29 5.84-7 18.51-10.39 24.27-3.04 2.55-5.59 5.24-7.65 7.92-7.62 9.93-9.93 29.32-3.24 56.1-14.1 24.03-20.19 54.47-20.19 84.52 0 30.9 4.79 56.14 4.79 56.14l11.31-9.57c-5.6-26.72-9.49-65.82 7.34-118.98 3.96 13.52 4.88 11.74 4.13 16.06-.93 5.31-5.77 19.16.23 31.17 1.61 2.77 2.77-16.86 10.16-30.25 1.15-2.08-9.47-18.93-10.39-48.72-.93-29.79 9-41.33 23.55-45.25s20.78-2.08 36.94-11.09c16.16-9 21.01-7.16 31.4-4.386s24.93-1.153 29.78-7.387c.83-1.07-8.08 3.23-21.24 3s-15.01-7.85-27.94-4.39c-12.93 3.465-11.32 8.775-33.02 10.854-9.09.87-16.88 3.16-23.43 6.26l.56-.48c2.54-9.236 8.08-16.16 12.003-18.47 3.926-2.31 14.317-6.466 22.397-14.316s13.16-10.62 23.09-9.926c9.93.69 19.86 1.18 22.168-.107 2.31-1.28-6.237-1.744-11.548-4.98-5.29-3.22-10.34-4.14-10.38-4.15 4.45-3.71 10.07-7.29 12.36-8.82 2.66-1.77 7.38-4.725 12.41-6.204 5.02-1.48 11.18-5.097 19.45-6.87s15.66-2.366 22.75.59 11.77 3.84 17.41 2.07c5.64-1.775 8.8-.81 16.19-.22 7.39.59 20.77-.97 29.635.8 5.91 1.183 15.66 1.183 24.53 2.956 8.863 1.77 12.67 6.61 18.893 10.62 11.128 7.17 12.11 19.32 14.51 19.314.8-.005-.5-10.26-5.24-18.1 6.77 2.95 21.66 9.584 25.73 12.474 5.32 3.774 10.4 10.323 13.1 16.18 2.7 5.853 7.86 11.94 11.17 15.87s2.16 9.013 1.47 14.02.925 7.088 2.39 10.016 2.927 8.165 3.16 11.4c.23 3.24 3.77 15.87 6.39 25.27s12.1 22.574 16.33 29.123c4.24 6.55 14.718 23.883 16.95 27.89 2.23 4.005 1.93 10.17-1 10.324-6.23.318-8.27-2.57-12.33-2.31-5.93.39-6.7 4.2-14.85 2.62-8.15-1.58-9.312-4.52-21.852-2.67-12.54 1.84-8.47 8.92-20.33 12.12-.944.35 1.306 1.77 7.87 1.64-3.96 3.213-8.59 4.503-13.22 5.79-1.038.59 3.66 2.5 7.95 1.5-3.88 7.97-10.888 10.04-12.78 13.04-1.898 3 2.384 2.27 5.223 1.826 0 0 3.55-.77 9.25-1.822 5.71-1.05 23.59-.61 26.79-.07s5.74-1.59 5.975-1.99c.23-.4 2.6-7.75 3.93-10.56 1.332-2.81 5.59-3.64 9.58-3.984 3.98-.35 6.96-.32 9.76 3.97 6.39 9.91 16.07 25.49 23.31 39.75 11.77 23.2 12.81 26.23 13.85 34.84 1.04 8.61-5.54 10.96-10.39 10.96s-14.89-1.56-18.88-1.39c-3.985.17-7.79 4.158-14.89 3.81-2.597-.13-6.93-2.422-6.24-5.89.69-4.85 5.42-5.25 5.37-7.1-.017-.522-3.12-1.02-5.68.168-2.887 1.33-4.47 4.73-6.098 8.84 0 0-4.68 7.96-9.18 13.23-4.507 5.263-13 10.433-13.8 13.49-.69 2.65.883 9.02.09 21.54-.315 4.99-.27 8.06.34 8.25 1.23.387 4.882-4.74 5.46-6.59.58-1.85 2.423-6.81 5.66-8.43 3.23-1.62 5.72-1.98 9.35-1.5 3.52.47 13.963 3.43 19.56-.04 1.23 2.73 3.902 4.98.64 6.506-2.785 1.307-6.697 1.617-12.47 1.04-5.77-.576-8.89-1.385-9.12-1.04-.23.35-.346 3.93 7.62 7.16.69.115 1.5 2.19-9.813 2.077-1.73-.12.25 3.14 6.13 5.6.85.35 3.31.22 3.9.64.93 1.396-1.87 7.388-3.59 10.17-1.84 3.006-7.82 8.066-7.82 8.526 0 .46 8.89-1.5 12.36-6.35 3.463-4.85 5.89-9.81 6.35-9.692.463.12 10.35 13.29 10.62 16.28.47 5.14-1.96 14.43-5.54 19.28s-9.35 7.39-16.046 7.97c-6.693.57-11.66 1.38-17.775 6.23s-16.04 11.78-16.04 11.78l-.35 3.92 1.85 1.5s13.85-5.2 18.01-7.97c4.152-2.77 14.08-5.2 18.24-5.43 4.15-.23 13.39-1.965 18.47-8.08s8.54-14.317 6.462-23.205c-2.08-8.89-11.2-23.43-11.2-24.24s4.85-7.85 7.044-11.43c2.18-3.56 3.67-7.34-3.33-12.71 5.74-9.13 7.9-21.86 8.46-26.57 8.88-.856 15 .17 21.64-.17 6.75-.345 14.15-3.9 15.88-9.79 1.74-5.884 1.11-10.11-3.22-20.67zm-95.405-57.035c-1.873 1.048-7.314 1.486-9.558 1.625 7.118-5.36 12.784-14.75 14.392-15.778 5.51-3.527 9.34-2.905 19.92-1.434-3.06 3.21-22.38 14.253-24.76 15.587zm50.326 104.67c-.52 5.367-.34 7.27-1.03 7.445-.69.173-4.44-4.056-5.54-4.675-2.03-1.146-4.49-2.664-5.54-2.25-1.26.5 1.82 2.7-10.97 1.973-.18-.01-.56-.12-.42-.793.81-3.843 6.05-7.468 4.97-8.774-.69-.83-6.37.046-10.81 2.24 7.23-5.854 12.53-13.608 13.55-15.86 3.55 1.992 8.75 2.47 14.08 2.016.01 3.23.03 8.63.17 10.19.17 1.9 2.08 3.11 1.56 8.48z"/><path fill="#CCC" d="M652.852 422.552c.52-1.385 4.85-.866 6.754-1.212s2.597-1.558 3.636-1.558 1.213 5.888 1.213 7.1-3.09 10.76-8.11 17.34-18.037 22.14-21.5 26.643c-3.464 4.502-6.754 8.312-7.62 10.91-.865 2.597-4.502 11.774-6.06 12.294s.173-9.7-.174-13.16c-.34-3.47-1.07-6.19-.17-6.93 1.94-1.59 4.38-.15 8.37-5.7 3.04-4.22 18.82-22.54 22.63-27.73 3.81-5.2 7.13-12.67 7.02-14.39-.14-2.09-6.47-2.31-5.98-3.62zm-31.4 150.955c-.993 1.987 6.987 8.52 13.464 12.44 6.48 3.922 21.477 8.864 22.5 8.523 1.022-.34-10.057-6.646-12.272-8.52s-6.647-5.456-6.306-5.967c.34-.512 2.216-.853 2.727-1.534s1.704-8.02 1.875-15.51c.17-7.5-.002-11.42-.854-11.42s-3.92 9.71-5.283 13.63-3.408 6.81-7.84 7.5c-4.432.68-7.67.17-8.01.85zM402.02 251.61c13.593-5.18 25.236-5.24 35.95-3.096s36.662 4.047 43.804-9.285c1.19-4.29-1.912 6.09-22.862 7.04-13.09.59-26.895-7.43-45.01-4.46-11.55 1.89-16.275 9.27-36.85 13.93-.306.07-.518.55.18.66 2.617.41 10.856.5 24.788-4.81zm208.12-4.297c-2.434-2.975-.923-3.926 1.5-3.002 5.772 1.62 8.312 6.7 7.85 10.39-.46 3.7-3.972 6.32-5.078 5.66-.578-.34 0-2.42 0-4.38 0-3.92-3.234-7.38-4.273-8.65zm12.686-12.835c.913-.913 5.553 2.792 8.438 9.488 2.886 6.695 4.85 9.697 7.042 12.12 2.193 2.425 6.35 8.89 3.232 16.74-.577 1.04-2.886-3.232-6.81-6.002-3.927-2.77-5.67-3.093-6.35-3.695-.728-.65.402-5.92-.463-12.93-1.164-9.46-5.665-15.15-5.09-15.73zm-259.48 75.05c68.237 24.204 84.186-3.38 119.09-2.626 10.66.23 24.02 7.61 38.167 7.61s26.45-8.415 29.39-16.867c2.94-8.452 3.684-20.432 5.888-23.74 2.21-3.307 4.6-3.858 10.66-3.674s16.52.54 18.38-2.2c3.86-5.69 1.84-20.94-.36-26.82-2.2-5.88-4.04-6.06-13.6-12.49-9.55-6.43-7.48-16.85-8.82-13.78-1.83 4.23.59 14.7 8.8 20.14 7.57 5.01 9.25 9.83 8.8 19.33-9.46-11.47-16.31-10.61-14.11-9.14 4.6 3.13 14.7 13.97 11.95 17.64-2.75 3.68-8.82-2.57-21.86 3.49-13.04 6.07-5.88 13.97-14.88 18.93-9 4.96-25.9 2.39-24.43 3.86 5.7 4.22 20.21 4.59 27.93 1.28-7.72 17.27-22.66 16.17-29.03 15.44-9.56-1.1-14.46-6.78-29.77-6.98-31.56-.41-42.87 13.87-74.5 14.91-17.32.57-42.51-4.27-47.15-5.56-4.63-1.29-.51 1.29-.51 1.29z"/><path fill="#CCC" d="M489.503 226.303c-.692 1.154 4.854 12.638 21.472 14.776 19.427 2.5 24.266 5.52 33.683 12.39 11.082 8.08 23.345 6.08 24.962 4.69 1.154-1.16-10.29.14-18.957-6.87-10.852-8.78-16.92-13.93-35.62-14.85-16.4-.81-25.54-10.15-25.54-10.15z"/><path fill="#CCC" d="M431.887 217.173c-.476 1.427 8.297 1.914 11.063 1.063 2.766-.85 5.957-5.106 15.53-5.106 9.574 0 14.467-3.19 20.21-2.34s18.936 4.68 22.978 7.872 14.04 6.17 22.552 6.382c8.51.213 24.466 6.808 28.508 10.85 2.553 2.127-2.34-6.808-7.02-9.36-4.682-2.553-26.594-10.85-30.85-11.063-4.255-.21-11.7 0-18.297-2.34-6.59-2.34-13.4-7.02-22.76-6.8s-14.25 2.98-24.25 3.41c-10 .43-17.44 6.81-17.65 7.45zm36.743 63.79c0-2.03 10.7-11.44 23.613-11.623 12.913-.185 21.584 7.01 33.76 6.642 12.175-.37 14.39-1.477 14.573-.738.185.738-6.64 5.903-19.738 5.903s-22.322-6.272-32.653-5.903-19.555 5.718-19.555 5.718zm63.29 35.1s-9.793 4.88-20.31 5.257c-5.075.18-10.695-2.538-11.784-1.45-.405.405 6.345 5.44 10.696 5.802 4.353.362 12.693-2.72 12.693-2.72-1.995 4.17-5.616 7.603-11.24 11.604-8.16 5.802-22.484 8.703-22.484 9.247 0 .543 14.51 2.356 21.76-.363 7.26-2.72 20.49-24.476 20.67-27.378zm-6.4 34.917c-.184-1.294-6.233 3.693-20.78 4.154-13.16.418-15.237-2.31-24.703-2.078-9.466.23-22.396 4.62-25.166 10.39-.69 1.616 6.01-4.85 20.78-5.772 12.52-.783 23.09 5.31 35.79 3.925 7.16-.7 14.32-9.01 14.09-10.62z"/><path fill="#CCC" d="M508.436 360.906c-5.54 3.694-10.158 5.542-20.317 5.772-10.16.23-21.94 2.078-25.86 10.85-1.16 2.08 5.77-5.28 17.54-5.77 16.62-.693 18.7 5.54 30.47 3.693 2.54-.69 2.31-7.15 2.31-7.15l-.46-9-3.7 1.62z"/><path fill="#CCC" d="M517.21 358.367c2.308 3.925 3.464 8.08 3 9.004-.46.93-11.543 8.32-11.543 8.32l-6.466-2.08 8.09-14.08 6.93-1.15z"/><path fill="#CCC" d="M512.13 371.065c1.847 4.617 3.23 9.928 2.54 10.39-.693.462-3.464-.462-4.156.23-.692.693-8.89 7.723-16.854 9.466-9.14 2.01-23.78-1.15-33.94 1.85-10.158 3-18.24 7.85-18.93 8.78-.694.93.63-5.33 14.544-11.77 15.47-7.15 28.398-.23 39.25-6.92s9.235-10.39 9.235-10.39l8.31-1.61zm37.98-6.925c.164-.674-2.425-1.617-8.543-1.502-5.078.096-7.734 3.925-13.622 10.967s-11.166 11.077-11.197 12.583c-.016.692 9.696-4.503 15.7-9.928 6.003-5.425 9.234-8.73 12.654-10.06 4.157-1.617 4.924-1.72 5.008-2.06z"/><path fill="#CCC" d="M374.342 413.718c2.285-4.34-2.97 8.453 17.807 9.146 22.29.745 22.91-9.413 43.35-11.292 18.67-1.717 20.27 7.19 53.73-.793 34.72-8.29 48.3-24.28 53.93-28.45 7.06-5.22 16.52-9.92 27.75-6.45 1.98.82-5.96 1.58-12.07 4.56-8.27 4.04-25.73 22.36-39.28 34.09-13.55 11.73-16.52 12.72-26.1 13.55-9.58.82-12.89.33-12.23-.17s14.7-2.65 20.98-6.28c6.27-3.64 27.26-21.64 27.26-21.64-16.11 9.11-33.88 19.37-60.96 20.65-21.16.99-25.77-4.79-44.94 2.64s-31.83 8.85-42.3 3.8c-9.58-4.63-6.98-13.39-6.98-13.39zM521.365 427.4c16.854-3 21.01-11.774 24.703-18.47 3.695-6.696 12.47-19.856 29.554-22.396 4.708-.393-10.62 4.387-16.162 16.854-4.362 9.817-9.004 23.55-31.63 25.628-7.157.462-6.465-1.616-6.465-1.616z"/><path fill="#CCC" d="M540.448 435.072c1.046.174-4.642-7.895-19.872-8.28-12.946-.328-21.86 7.618-21.694 8.115.166.497 11.752-3.36 20.866-3.478 12.75-.17 19.707 3.47 20.7 3.64zM365.746 396.63c-1.22-1.036-17.175 15.028-23.616 40.432-6.44 25.404-7.513 28.982-8.586 30.414-1.074 1.43-20.753 17.175-22.9 20.395-2.146 3.22-7.366 27.78-7.872 44.37-.382 12.54 2.147 34.71 2.863 37.57 0 0-2.39 9.12-7.896 14.16-.39.46.68 2.88.94 5.98.37 4.4.05 10.02-.32 11.96 0 1.26 4.72-3.14 8.97-14.16 4.25-11.01 4.88-16.21 4.88-18.57 0-2.36-6.45-19.05-5.82-36.19.74-20.36 10.23-33.99 15.58-40.12 5.35-6.13 21.85-20.11 23.13-23.29.88-2.17 4.72-29.9 8.34-44.69s12.96-27.68 12.3-28.24z"/><path fill="#CCC" d="M307.163 570.627c-6.7-7.26-8.375-10.958-10.238-10.797-4.282.372-11.914 8.936-14.148 13.96-1.117 2.422.373 25.69 3.35 35.93 2.98 10.24 10.61 8.936 12.66 7.26s4.467-5.77 3.722-6.33c-.75-.557-3.17 2.235-5.03 2.422-1.86.186-5.77.56-6.33-12.845-.56-13.404 0-21.967.74-23.456.74-1.48 2.6-4.28 3.72-4.46 1.11-.18 6.89 3.35 7.63 6.89 3.53-2.6 3.91-8.56 3.91-8.56z"/><path fill="#CCC" d="M283.894 579.19c-5.584-.185-13.03.745-13.96 1.304-.932.56-4.47 8.378-3.724 13.59.372 3.723 3.165 4.84 3.35 6.33.188 1.487 1.118 3.908 3.352 7.26 2.234 3.35 6.888 13.03 11.355 15.45l2.42.372s-5.398-7.817-7.074-13.217c-1.676-5.4-3.165-10.06-4.654-12.11-1.31-1.12 1.67-7.26 1.86-9.68s-.37-4.66 6.51-5.03c1.3-2.98.56-4.28.56-4.28z"/><path fill="#CCC" d="M266.518 608.753c2.015 0 1.648 3.297 4.03 6.41 2.38 3.112 4.76 4.03 4.394 5.494 4.944.182 13.842 2.2 14.284 3.845.594 1.203-4.89-.002-17.87.8-14.834.915-20.403-2.63-20.952-2.08-.55.548.55 3.294 1.28 4.394.733 1.1 1.1 6.41-.548 8.424-1.648 2.014-7.69 8.24-14.467 7.69-1.29-.183 4.57-3.295 6.4-5.493 1.83-2.197 1.83-8.79.91-10.805s-3.3-9.34-2.38-9.89 7.87 2.565 11.17 2.932c3.29.365 14.28-.366 14.65-.916.36-.55-2.38-5.493-2.2-7.69.18-2.198 1.28-3.115 1.28-3.115zm-104.314 30.323c5.69 1.034 18.107 1.033 26.126-.52-2.07-4.914-4.14-14.484-1.81-14.743 2.328-.26 25.61 7.243 44.492-1.293 2.07-.776 4.656 5.174 4.656 6.726 0 1.412-22.93 4.967-39.726 1.89-1.658-.304-4.74-1.167-3.842 2.027 1.174 4.18 2.243 5.978 2.438 6.947.26 1.294-13.43 8.063-30.503 6.51-5.43-4.138-1.83-7.544-1.83-7.544z"/><path fill="#CCC" d="M500 872.333c-50.263 0-99.024-9.846-144.93-29.262-44.337-18.75-84.156-45.6-118.35-79.79-34.19-34.19-61.038-74.01-79.79-118.35-19.417-45.9-29.263-94.66-29.263-144.93s9.846-99.02 29.262-144.93c18.75-44.33 45.6-84.15 79.79-118.35 34.19-34.19 74.01-61.04 118.35-79.79 45.9-19.41 94.66-29.26 144.93-29.26s99.02 9.85 144.93 29.26c44.33 18.76 84.15 45.6 118.35 79.79 34.19 34.2 61.04 74.02 79.79 118.35 19.41 45.91 29.26 94.67 29.26 144.93s-9.85 99.03-29.26 144.93c-18.76 44.34-45.6 84.16-79.79 118.35-34.2 34.19-74.02 61.04-118.35 79.79-45.91 19.42-94.67 29.27-144.93 29.27zm0-735.662c-49.05 0-96.632 9.61-141.423 28.55-43.264 18.3-82.12 44.5-115.49 77.87-33.368 33.37-59.566 72.23-77.865 115.49-18.944 44.79-28.55 92.37-28.55 141.42 0 49.05 9.606 96.63 28.55 141.43 18.3 43.27 44.498 82.12 77.866 115.49 33.37 33.37 72.226 59.57 115.49 77.87 44.79 18.95 92.37 28.55 141.422 28.55 49.052 0 96.632-9.6 141.423-28.55 43.264-18.3 82.12-44.5 115.49-77.86 33.367-33.36 59.565-72.22 77.864-115.48 18.945-44.79 28.552-92.37 28.552-141.42s-9.61-96.63-28.56-141.42c-18.3-43.26-44.5-82.12-77.87-115.49-33.37-33.37-72.23-59.57-115.49-77.86-44.79-18.94-92.37-28.55-141.42-28.55z"/><path fill="#CCC" d="M500 900c-53.998 0-106.382-10.576-155.7-31.436-47.632-20.146-90.41-48.988-127.143-85.723-36.734-36.73-65.574-79.51-85.72-127.14C110.577 606.39 100 554 100 500c0-53.998 10.577-106.382 31.436-155.7 20.147-47.632 48.987-90.41 85.72-127.143s79.512-65.574 127.144-85.72C393.618 110.577 446.002 100 500 100c53.998 0 106.382 10.577 155.7 31.436 47.632 20.147 90.408 48.987 127.142 85.72 36.734 36.735 65.576 79.512 85.723 127.144C889.425 393.618 900 446.002 900 500c0 53.998-10.576 106.383-31.436 155.7-20.146 47.632-48.988 90.408-85.723 127.142-36.73 36.734-79.51 65.576-127.14 85.723C606.38 889.425 554 900 500 900zm0-790.996c-52.786 0-103.99 10.337-152.192 30.725-46.56 19.69-88.374 47.88-124.283 83.79-35.91 35.91-64.103 77.72-83.795 124.28-20.387 48.2-30.725 99.4-30.725 152.19s10.337 103.99 30.725 152.19c19.692 46.56 47.885 88.37 83.795 124.28 35.91 35.91 77.725 64.1 124.283 83.79 48.2 20.38 99.406 30.72 152.192 30.72s103.99-10.34 152.19-30.73c46.56-19.69 88.376-47.89 124.285-83.8s64.103-77.73 83.796-124.29c20.39-48.2 30.73-99.41 30.73-152.19S880.66 396 860.28 347.8c-19.69-46.56-47.883-88.37-83.792-124.28-35.91-35.91-77.725-64.1-124.284-83.794C603.996 119.34 552.79 109 500.006 109z"/><path fill="#CCC" d="M179.083 673.29c7.1 1.903 13.68 1.903 20.087 3.81 6.407 1.903 19.914 12.64 19.914 12.64s.866-14.72 2.597-19.74c4.85-5.195 10.05-8.658 13.68-13.333 3.64-4.676 7.45-6.58 14.72-8.485 7.28-1.905 28.23-8.658 31.35-12.64 2.25-3.29 3.64-3.984 6.06-3.638s14.38.347 16.45-.347c2.08-.69-.86 3.117-5.02 3.637s-10.91 1.386-13.16 5.195c-2.25 3.8-6.75 9.52-7.62 9.69-.86.17-26.32 6.23-31.17 9.35-4.85 3.12-10.04 10.22-18.7 15.58-3.11 16.1-5.71 27.53-8.48 28.57-2.77 1.04-.86-10.74-16.1-14.2-15.24-3.46-24.24-3.81-24.24-3.81l-.35-12.3z"/><path fill="#CCC" d="M177.005 657.012c-.98.98 16.45 12.468 21.472 12.814 5.02.346 12.813-2.944 13.68-3.637.865-.7 5.195-5.2 7.62-6.41 1.038-1.21-3.118-3.12-4.503-3.29-1.385-.18-7.62-.18-8.312.52-.692.69 0 3.29-4.848 4.85-4.85 1.56-6.06 1.56-11.948-.87-5.888-2.43-12.468-4.68-13.16-3.99zm583.978 96.802c-4.536-4.014-9.83-8.475-10.274-12.69-.53-5.017 2.17-16.805 4.95-19.706 2.78-2.9 4.95-4.11 4.95-4.714s-.73-12.09-1.33-13.66-9.55-8.824-10.28-9.792-1.09-2.176-.97-6.407c.12-1.812-8.1-12.934-8.59-13.417-.49-.484-4.35-1.933-6.89-4.11s-7.14.242-11.24.726-6.5-.242-10.4-2.538c-2.06-1.21-15.48 0-17.41 0s-3.87-.484-5.92-2.54-6.77-4.228-11.37-4.713c-4.6-.484-21.4-3.508-21.4-4.836 0-1.33 15.71 0 21.03.242 5.31.24 11.36.36 12.57.72 1.21.36 8.76 4.27 9.36 4.51s6.34-.39 8.88-.75c2.54-.37 4.23-1.24 7.37-.99.73.06 2.42 1.08 5.56.96 3.14-.12 8.34-.73 10.64-1.21s4.48.6 6.9 2.77c2.42 2.18 6.53 7.01 7.13 7.98.6.97 9.11 12.87 9.35 14.08.24 1.21.12 4.95 2.29 6.28s9.98 8.1 10.59 9.07c.6.96 1.57 16.68.48 18.49-1.09 1.81-7.37 6.58-7.86 12.87s-.24 8.22 1.21 10.27c1.45 2.05 6.65 7.85 6.65 7.85l-6.04 5.2z"/><path fill="#CCC" d="M663.998 626.58c.634-2.115 14.44-2.48 27.714-.585 13.273 1.896 21.88 4.377 20.858 16.483s-6.418 20.857-6.418 20.857l-9.19.292s7.446-10.344 8.46-14.15c2.335-8.75-6.417-16.627-22.17-19.106-15.753-2.47-19.69-2.33-19.254-3.79zm-5.488-2.7c1.257-1.52-7.967 2.655-17.316-.46-9.352-3.118-14.55-7.96-25.397-7.39-8.773.462-14.776 3.463-17.317 5.772-4.354 3.96-13.16 13.62-18.7 13.62-5.54 0-11.312 1.85-18.7-4.616l-5.542-5.08 2.31 4.62 11.773 10.85s19.4-.23 26.56-3.232c7.16-3 9.24-12.7 14.55-14.314 5.31-1.616 12.02 1.373 19.63 3.693 13.62 4.156 22.63 3.233 28.17-3.462z"/><path fill="#CCC" d="M639.115 614.415s-22.627-13.854-40.866-27.245c-18.24-13.39-50.57-30.938-63.27-38.557s-38.1-25.166-43.87-28.398c-5.78-3.232-10.39-1.616-7.16.23 11.38 6.506 28.16 15.932 35.32 23.782s29.09 17.366 47.67 28.193c18.58 10.826 43.06 35.3 52.98 41.994 7.97 5.374 14.77 7.39 14.77 7.39l3-4.618-.94-.593 2.32-2.178zm-14.318 80.94c2.37-.59 18.445-4.8 22.863-3.2 2.35.853-4.502 4.147-18.6 7.938-3.79-2.724-4.263-4.74-4.263-4.74zm7.52 6.612c8.18-1.377 26.605-6.458 27.725-3.96 1.17 2.608-9.323 4.646-23.42 8.437-3.792-2.724-4.306-4.477-4.306-4.477zm8.355 8.357c4.318-1.197 11.473-2.365 17.654-3.766 6.77-1.534 11.79-1.702 12.47-.805 1.215 1.6-9.9 4.963-23.904 9.078-3.855-2.63-6.22-4.5-6.22-4.5z"/><path fill="#CCC" d="M720.847 681.6c-7.85 3.234-17.548 18.703-21.473 22.166s-7.388 6.002-7.388 7.85c-1.767 1.767-11.347 5.645-15.61 7.19-7.153 1.517-14.238 2.174-14.365 1.314-.08-.6 4.74-2.19 8.87-3.684 5.73-2.067 8.87-4.19 8.15-5.138-.68-.897-3.86-.548-10.63.986-5.91 1.34-13.4 3.244-17.82 4.455-2.34-1.69-4.85-3.73-7.53-5.82-6.23-4.85-19.39-19.63-19.39-19.63 9.24-1.39 14.63-2.83 14.63-3.76 0-.27-2.98-1.48-5.27-1.51-5.79-.07-15.89 1.89-16.05 2.72-.23 1.15 12.93 14.77 15.7 17.31 2.77 2.54 17.82 20.03 18.74 21.42.93 1.38 7.39 3.46 11.09 3.46 3.69 0 15.25 1.28 17.1.35s16.4-7.85 18.24-9.7c1.85-1.85 12.89-25.94 17.73-30.78 4.85-4.85 9.24-8.31 12.7-8.78 3.47-.46 9.7-1.62 9.7-2.54s-9.23-1.16-17.08 2.08zm-110.917-.808c-.368-1.183 2.386-1.676 5.693-2.216 2.223-.363 9.004-1.132 11.168-.785s4.07.94 3.9 1.47c-.17.53-6.58 2.84-10.47 3.65-7.53 1.56-10.28-2.1-10.28-2.1zm84.842 88.675c-.427-1.163 2.3-1.796 5.573-2.504 2.2-.477 8.37-1.584 10.534-1.932 3.95-.63 4.71.63 3.79 1.37-.43.35-9.74 4.2-15.23 5.47-4.27.99-4.68-2.4-4.68-2.4zm-9.24-8.1c-.46-1.15 2.19-2.15 5.504-2.655 3.573-.548 17.268-1.82 19.42-2.23 3.938-.742 4.73.5 3.835 1.264-.42.36-11.03 3.816-23.06 5.982-4.28.77-5.69-2.36-5.69-2.36zm18.355 16.57c-.48-1.142 2.217-1.895 5.457-2.75 2.18-.57 9.49-2.3 9.995-1.566 1.18 1.73-4.22 4.21-9.51 6.13-4.88 1.77-5.95-1.81-5.95-1.81zm8.777 7.917c-.485-1.12 1.69-1.964 4.312-2.924 1.763-.646 7.692-2.623 8.17-1.91 1.116 1.676-3.17 4.334-7.407 6.43-3.91 1.93-5.08-1.596-5.08-1.596zm-103.3-117.25c-5.83.935-7.68 2.2-8.068 3.137-.39.94 3.037 1.79 5.738 1.48s10.03-3.17 10.26-4.37c.227-1.2-4.06-.86-7.93-.24zm-20.34-16.334c-5.83.935-7.685.88-8.075 1.813-.39.936 3.58 4.17 6.28 3.862s9.49-4.232 9.72-5.436c.23-1.2-4.06-.86-7.93-.24zm-85.898-63.714c.263 1.147 6.695 2.77 8.08 3 1.386.23 4.604-.37 7.843 2.932 3.23 3.304 18.24 17.85 23.55 23.39 5.31 5.542 25.39 24.93 27.24 26.318 1.84 1.39 6 6.93 8.31 6.93s10.85-2.54 10.62-4.62c-.23-2.076-9-2.082-11.55-3.003-2.54-.92-2.98-2.277 2.31-2.748l1.84-2.79h-11.54l-10.39-7.157h1.61s10.16.414 11.08-2.217c.92-2.63-7.62-.32-17.09-6.09-9.47-5.77-14.55-11.31-16.16-16.39s-2.77-10.16-9.47-13.62c-6.7-3.46-13.86-7.39-15.24-7.62-1.39-.23-3.61-1.31-4.77.53-1.16 1.85-6.57 2.07-6.32 3.17zm172.816 161.84c-1.416.41 1.985 4.484 3.993 4.72 2.007.234 17.145-2 23.598-2.88 6.456-.88 11.753-2.304 11.785-3.26.034-.955-2.344-1.603-10.206-1.077-7.86.52-28.06 2.17-29.17 2.49zm-5.072-12.036c-1.3.212-2.426 4.108-2.166 5.14.26 1.033 2.968 2.92 4.47 2.994 1.505.074 9.29-2.336 11.016-2.615 1.724-.28 28.695-2.19 31.923-2.39s9.72-3.51 2.44-3.54c-7.274-.03-8.66.01-8.66.01s4.11-1.73 6.262-7.45c2.15-5.72 7.922-9.92 9.19-9.96 1.27-.04 11.6 5.91 13.91 5.96 2.312.05 5.88-.4 6.21-.98.33-.59-6.174-1.91-14.54-7.91 6.317-1.22 10.392-4.22 11.91-7.73 1.52-3.51 1.538-11.13.483-11.68-1.054-.55-1.638 7.55-3.666 9.34-2.03 1.79-6.036 3.05-9.7 4.19-3.664 1.14-9.36.91-11.372 2.16-5.45 3.38-10.18 11.83-13.104 14.68-2.924 2.85-8.833 5.97-16.53 7.73-14.92 3.41-15.546 1.58-18.076 2zM371.292 428.555c.656-1.86 3.694 0-4.387 14.314-2.9 5.13-2.31 24.7-1.154 28.62 1.16 3.92 24.48 18.93 32.33 20.08 7.85 1.15 22.17-5.77 28.17-1.16 1.39 1.61-3.23-1.85-16.85 3.92s-18.47 6.23-23.09 3.46c-4.61-2.77-27.7-23.09-28.4-26.32-.69-3.23.47-25.4.93-27.25.46-1.85 11.09-11.78 12.47-15.7z"/><path fill="#CCC" d="M370.737 484.93c2.28 2.044-3.082 10.35.73 15.89.728.822 2.25-12.986 7.94-8.332 5.165.976 2.968-3.095 2.968-3.095l-11.638-4.463z"/><path fill="#CCC" d="M378.804 492.055c2.166 1.728 1.756 6.34-2.358 9.978-4.115 3.636-27.665 18.355-30.608 19.914s-10.91 15.584-11.255 17.662c-.347 2.07 4.155 14.89-3.463 35.67-7.62 20.78-21.818 31.86-21.645 32.55.173.69 17.27-9.91 26.1-26.23 13.507-24.98 7.4-38.3 8.82-41.9 3.993-10.13 25.66-20.19 25.66-20.19-1.186 9-7.592 22.33-7.42 22.85.174.52 7.42-4.33 13.813-24.59 3.98-12.62 7.313-19.57 11.9-18.98 2.313.29 1.475-5.09 1.475-5.09l-11.02-1.67zm-18.594-7.125c.588-.636 2.25 3.77-12.64 14.417-7.165 5.123-12.313 8.92-15.854 14.634-3.542 5.72-7.87 10.57-8.043 12.13-.173 1.56-2.29 21.66-8.14 27.36-1.384 1.56 1.732-7.27 2.08-15.76.345-8.48-.174-15.76 3.116-20.95s12.02-15.7 17-18.15c4.98-2.45 17.6-8.4 22.47-13.66zm81.04-48.18c-.29-1.024 12.582-5.31 19.047-5.078 6.465.23 18.817 9.004 28.63 13.506 9.81 4.502 16.507 4.618 16.507 5.195s-11.43 1.616-21.126-2.886c-9.697-4.502-18.675-12.412-27.19-12.033-11.246.5-15.775 1.63-15.87 1.297zm-39.135 1.213c-.866.692 14.026 14.026 22.165 14.026s27.88 1.55 43.983 8.31 25.108 7.44 31.515 7.44c6.58-.18 7.966-.87 7.966-.87s-13.062-2.28-27.607-9.38c-14.545-7.1-21.05-12.1-41.138-11.75s-36.89-7.8-36.89-7.8z"/><path fill="#CCC" d="M460.99 463.71c-.24-.065-1.466-.136 1.497 2.103 4.727 3.573 20.46 9.31 41.1 3.708 26.32-7.14 30.996-15.8 30.477-16.66-.52-.86-3.636 2.95-16.624 2.25-4.33 4.68-20.606 18.25-56.45 8.61zm-75.433-8.433c.148 1.478 9.03-2.345 24.228 7.02 20.978 12.924 42.846 20.814 58.205 21.64 18.467.993 31.46-3.223 31.468-4.875.004-.838-15.512 4.875-35.75.295-20.24-4.58-41.116-17.126-57.32-24.08-10.195-4.374-20.83 0-20.83 0z"/><path fill="#CCC" d="M427.335 469.867c-6.33.457-21.28 3.892-32.184 2-10.9-1.895-19.52-19.808-21.63-20.963-2.11-1.156-1.05 10.803 0 13.97 1.06 3.165 12.99 11.085 19.52 12.66 10.2 2.463 33.44-4.395 59.34 3.745-9.92-6.56-25.04-11.42-25.04-11.42zm76.6 79.613c.53-.685-2.6-4.157-5.89-7.793-3.29-3.637-6.233-4.156-10.39 0-4.155 4.155-5.54 9.004-5.54 20.087 0 11.082-1.04 34.98-9.005 59.394-7.965 24.417-13.977 43.642-20.77 46.104-7.768 2.813-14.9-2.64-20.27-7.488-5.368-4.85-15.93-16.796-26.494-23.723s-29.42-16.78-30.13-15.75c-1.04 1.5 21.847 18.58 28.254 24.12 6.406 5.54 21.85 19.35 28.29 25.03 8.136 7.17 16.788 8.39 20.944 7.35 4.155-1.04 8.778-4.49 13.872-14.96 5.664-11.64 13.06-38.75 16.088-52.43s4.24-31.17 4.587-40.34c.35-9.17 2.71-20.26 4.68-21.64 3.47-2.42 10.57 3.64 11.78 2.08zM368.28 616.775c.88-.883-9.75-7.892-15.164-11.295-5.416-3.404-13.46-8.355-14.854-8.355-1.393 0-4.796 2.225-5.725 3.28-.93 1.053-1.857 5.54-3.095 8.324-1.238 2.78-11.14 22.43-10.52 22.74.618.31 6.807-7.12 10.21-12.85 3.405-5.73 9.594-13.45 10.986-12.69 1.393.76 26.923 12.07 28.16 10.83zm67.576-125.125c-2.353-1.444 1.57-3.06 4.246-2.554 2.675.505 31.84.28 40.523.133 13.517-.23 21.194-.43 22.186.63.99 1.06-12.79 2.24-20.85 2.57-13.57.54-40.19 1.66-41.83 1.16-2.27-.69-4.26-1.96-4.26-1.96zm16.407 10.482c-.943-.578-2.036-2.398 1.16-2.56 3.195-.16 30.06-.077 34.995-.45 4.934-.373 12.545-1.015 13.8-.79 1.256.227 2.755 1.647 2.374 2.09-.38.44-10.88 1.784-19.376 2.338-5.89.384-17.674.734-26.54 1.023-3.576.117-4.357-.39-6.413-1.65zm16.642 10.256c-1.185-1.768.935-2.545 3.25-2.672 2.317-.127 17.232-.005 20.813-.326 3.58-.32 11.592.048 11.47 1.553-.075.927-7.76 1.583-13.922 2.048-2.44.19-8.036.27-13.812.46-4.336.15-6.844.36-7.8-1.06zM595.813 269.02c.017-.98 1.544-2.434 5.354-2.503 4.85-.09 7.615.305 7.358 1.744-.256 1.44-12.543 3.39-12.782.95m11.737 5.29c.055-1.25 2.072-2.4 7.24-2.65 6.458-.3 10.11.34 9.72 2.17s-16.824 3.85-17.06.72m6.75 6.62c-.068-1.07 6.072-3.23 12.437-3.13 6.364.1 12.044 1.37 11.945 2.25-.098.88-1.175 2.16-6.07 2.35-4.897.2-18.115 1.57-18.31-1.47zm4.982 8.35c-.304-1.26 4.908-2.08 10.88-2.56 5.975-.49 16.267.29 16.015 1.85-.348 2.16-10.53 3.14-15.818 2.95-5.29-.2-10.6-.25-11.08-2.23zM488.81 519.14c1.804.58 3.28.6 5.57.622 5.493.053 17.02 0 16.247 1.547-.487.97-9.138 1.7-17.554 1.89-6.843-1.39-5.488-4.46-4.263-4.07zm9.964 6.25c5.875.19 17.886.008 19.727.104 1.85.096 3.32.634 3.4 1.33.08.697-3.66 1.657-8.98 1.957-5.32.31-11.2.23-11.2.23l-2.93-3.61zm20.966 13.513c3.954 2.583 11.668 2.437 20.21 2.32s17-.697 17.23.09c.232.79-4.993 2.68-9.842 3.26s-18.356 1.847-20.953 1.27c-2.596-.577-6.644-6.94-6.644-6.94zm15.247 9.71c4.015 2.485 11.712 1.968 20.25 1.645 8.537-.322 16.425-.628 16.676.154.25.783-1.81 2.377-9.208 3.013-4.865.418-18.307 2.293-20.917 1.78-2.61-.514-6.8-6.592-6.8-6.592zm12.555 7.285c4.93 3.335 11.346 2.353 19.886 2.096 8.54-.255 16.118-.22 16.516.5.73 1.32-1.773 1.833-9.074 2.726-4.847.593-18.323 2.15-20.93 1.616-2.606-.533-6.398-6.938-6.398-6.938zm14.203 8.207c2.146 1.323 1.71 2.527 20.264 1.786 8.53-.34 12.51-1.43 12.76-.64s-4.92 2.81-9.75 3.52-13.85 2.62-16.46 2.11c-2.61-.51-6.83-6.76-6.83-6.76zm13.535 8.03c3.996 2.516 7.744 2.764 16.045 1.876 8.495-.9 15.016-1.43 15.26-.64.245.79-.79 2.05-8.5 3.26-4.823.76-13.446 2.69-16.053 2.15-2.606-.53-6.75-6.64-6.75-6.64zm23.98 16.658c4.262 2.033 6.418 2.508 14.558.657 8.33-1.895 12.85-2.672 13.522-2.2.987.69.404 1.594-6.79 3.893-4.65 1.485-11.158 3.687-13.81 3.46-2.65-.226-7.48-5.81-7.48-5.81zm13.467 8.554c3.762 2.406 4.792 2.666 12.63-.21 8.02-2.943 11.603-3.642 12.33-3.26 1.066.56 1.72 1.264-5.437 4.078-4.545 1.787-10.597 5.082-13.254 5.197-2.658.116-6.27-5.805-6.27-5.805zm-25.33-17.04c4.986 3.246 8.71 2.242 14.71 1.15 8.406-1.53 13.467-2.043 14.246-1.78 2.8.935-2.616 3.16-9.764 4.89-5.19 1.253-11.73 2.65-14.35 2.16-2.62-.49-4.85-6.42-4.85-6.42zm35.42 23.75c4.984 3.027 6.845 1.944 13.12-.518 7.952-3.12 8.472-4.03 10.162-4.02 2.14.01-1.08 2.66-7.54 6.18-4.69 2.55-6.31 4-8.96 4.21-2.65.2-6.8-5.86-6.8-5.86zm-117.164-74.475c3.952 2.583 11.55 3.1 20.092 2.984s18.32-.315 18.32.837c0 1.52-2.15 1.47-7 2.048-4.85.58-22.172 1.65-24.77 1.07-2.594-.57-6.642-6.93-6.642-6.93zm110.835 318.716l5.54-4.617c-42.02-12.23-131.14-55.64-144.762-66.49-13.622-10.85-7.514-12.63 1.41-24.92 16.443-20.37 37.9-48.55 43.9-60.56 6.004-12 9.676-49.6 8.753-62.53-.93-12.93-10.66-28.61-14.59-29.07-9.24-.46-16.07 2.08-16.16 3.47-.15 2.27 10.5 1.28 15.73 1.94 3.93.49 10.59 17 10.36 29.47s-3.23 44.56-10.62 57.72-47.56 61.88-53.11 69.5-9.6 12.9 4.15 22.86c12.94 9.37 101.58 53.57 138.06 65.8 10.62-.92 11.31-2.54 11.31-2.54z"/><path fill="#CCC" d="M440.898 705.973c-1.41-.23 2.412-8.44 10.68-10.334 5.69-1.31 21.704-2.84 26.073 9.42 4.38 12.26 4.98 22.65-6.81 32.52-13.06 10.94-29.46 5.28-36.03-2.04s-1.52-22.75 1.27-23.71c2.79-.97 3.79-.35 1.7 5.86-.91 2.69-3.94 13.08 8.01 19.06 11.95 5.97 28.25-5.12 30.05-13.37 1.81-8.25-1.99-19.77-7.15-22.09-5.15-2.32-9.31-3.66-17.1-1.28-7.78 2.38-7.84 6.41-10.67 5.95z"/><path fill="#CCC" d="M458.207 705.344c-1.776 1.673 4.114 5.314 3.147 11.437-.75 4.77-2.508 9.26-8.007 10.82-5.498 1.56-8.063.12-9.446 1.6-1.38 1.48 5.78 4.85 12.57 2.75 6.79-2.1 12.02-10.33 11.87-14.33-.14-4.01-1.62-9.53-3.73-10.64-2.11-1.11-5.61-2.34-6.39-1.61zM508.33 474.84c-.975.154.865 3.868 1.79 4.444.923.577 11.196-.29 16.507-1.212 5.31-.923 9.445-2.227 8.716-3-.96-1.022-6.463-.48-12.698-.348-5.75.123-12.21-.216-14.315.116zm5.367 10.736c-.977.14 1.19 3.923 2.107 4.514s10.232-.665 15.556-1.512c5.322-.847 9.434-1.986 8.716-2.77-.947-1.036-6.174-.39-12.41-.347-5.752.04-11.86-.18-13.97.12zm6.063 9.582c-.794.045 1.746 3.772 3.312 4.46.82.358 7.917-.262 12.177-1.124 4.26-.863 6.97-2.05 6.4-2.834-.76-1.032-4.38-.417-9.37-.356-4.6.055-10.38-.27-12.53-.146zm8.598 9.062c-.593.034 1.937 2.76 3.11 3.273.613.27 5.925-.195 9.115-.842 3.188-.64 5.22-1.53 4.79-2.12-.563-.77-3.275-.31-7.01-.26-3.444.05-8.398-.13-10.005-.04zm8.4 7.36c-.5.027.95 2.164 2.87 2.758.54.167 5.003-.166 7.696-.71 2.693-.547 4.407-1.298 4.046-1.793-.478-.652-2.767-.264-5.92-.225-2.908.037-7.336-.11-8.693-.03zm-62.535 26.33c-.835-.084-10.733.24-18.576.647-6.917.357-10.812 1.856-10.682 2.547.13.69 14.675.48 18.256.517 3.59.04 11.08-.24 11.66-.49.57-.24 1.21-3.03-.65-3.22zm.1 8.327c-.626-.09-8.043-.224-13.9.14-5.164.318-8.396 1.07-7.963 2.487.204.667 10.964.563 13.64.618 2.674.055 7.907.016 8.7-.426.426-.237.906-2.62-.478-2.82zm-.4 8.467c-1.735-.474-5.96-.54-10.39-.21-3.91.29-7.278 1.208-6.018 2.443.497.486 8.304.623 10.33.693 2.024.068 5.5-.087 5.867-.245 1.105-.473 1.243-2.4.21-2.68zM360.813 658.55c-1.736-.473-5.96-.54-10.39-.21-3.91.29-7.28 1.21-6.02 2.444.498.486 8.305.622 10.33.692 2.025.07 5.5-.087 5.868-.244 1.11-.472 1.25-2.4.22-2.68zm197.834-81.28c-1.735-.474-5.96-.54-10.392-.21-3.908.29-7.277 1.208-6.016 2.443.49.487 8.3.623 10.32.693 2.02.068 5.5-.087 5.87-.245 1.1-.47 1.24-2.4.21-2.68zm-19.693-12.104c-1.735-.473-5.96-.54-10.393-.21-3.9.29-7.27 1.21-6.01 2.443.5.48 8.31.62 10.33.69 2.03.07 5.5-.09 5.87-.25 1.11-.48 1.24-2.4.21-2.68zm31.796 18.874c-1.733-.474-5.96-.54-10.39-.21-3.91.29-7.277 1.208-6.017 2.443.496.486 8.303.623 10.33.693 2.023.068 5.5-.087 5.867-.245 1.105-.47 1.243-2.4.21-2.68zm9.27 6.974c-1.633-.476-5.61-.55-9.78-.224-3.68.285-6.848 1.2-5.66 2.437.47.486 7.817.633 9.724.706 1.906.07 5.18-.08 5.523-.236 1.038-.473 1.167-2.4.194-2.683zm8.826 6.566c-1.628-.477-5.59-.55-9.746-.227-3.664.285-6.82 1.2-5.638 2.437.466.486 7.788.634 9.687.706 1.89.072 5.15-.08 5.5-.236 1.03-.472 1.16-2.4.19-2.68zm10.312 7.383c-1.485-.48-5.1-.56-8.89-.245-3.344.278-6.223 1.187-5.14 2.426.426.487 7.105.648 8.838.726 1.732.075 4.706-.07 5.02-.227.944-.47 1.055-2.395.172-2.68zm-125.725-41.84c-1.117-.488-3.828-.59-6.67-.296-2.504.26-4.658 1.15-3.84 2.396.323.49 5.334.688 6.634.774 1.3.086 3.53-.042 3.764-.196.71-.46.78-2.38.12-2.67zm-128.06 89.727c-1.116-.486-3.83-.588-6.67-.293-2.503.26-4.657 1.15-3.84 2.396.324.49 5.335.688 6.635.775 1.3.085 3.53-.043 3.764-.198.704-.465.776-2.39.112-2.68zm-12.776-4.343c-.936-.49-3.2-.603-5.575-.318-2.093.25-3.89 1.13-3.2 2.38.27.49 4.458.71 5.545.8 1.087.09 2.95-.03 3.145-.19.587-.46.64-2.39.085-2.68zm-10.542-4.47c-.747-.496-2.55-.617-4.437-.344-1.663.24-3.088 1.115-2.535 2.366.218.49 3.55.72 4.416.82.86.09 2.34-.02 2.5-.17.46-.46.5-2.38.05-2.68zm150.962-73.023c-.848-.492-2.9-.61-5.048-.33-1.9.246-3.52 1.127-2.9 2.375.24.49 2.52.62 4.1.58.99-.03 3.19-.24 3.41-.33 1.09-.45.93-2.02.43-2.31zm134.368 40.21c-.847-.494-2.898-.61-5.047-.33-1.895.245-3.52 1.124-2.893 2.374.246.492 2.52.627 4.102.586.987-.024 3.19-.235 3.408-.324 1.096-.447.935-2.014.43-2.307zM472.035 579.2c-.65-.497-2.216-.624-3.854-.356-1.44.235-2.68 1.106-2.19 2.358.19.493 1.93.64 3.14.608.76-.02 2.44-.22 2.6-.307.84-.44.71-2.007.32-2.303zm-.67 7.515c-.512-.5-1.744-.635-3.03-.375-1.134.23-2.1 1.094-1.713 2.348.152.495 1.517.65 2.466.623.593-.01 1.913-.2 2.042-.29.653-.44.54-2 .236-2.3zm102.172 93.297c-1.218-.108-15.624.35-27.04.905-5.273.254-10.013.644-12.664 1.346-2.413.638-2.982 1.58-2.893 2.008.187.9 21.357.58 26.57.61 5.21.04 17.944-.33 18.78-.65.833-.32-.06-3.97-2.753-4.21zm11.32 10.703c-1.73-.097-22.918.22-39.146.883-3.9.16-10.31.563-13.26.734-10.04.577-9.06 2.117-8.87 2.77.26.896 30.34.376 37.75.36 6.08-.01 19.34-.403 24.57-.645 3.82-.178 2.79-3.888-1.03-4.104zm8.996 10.24c-2.39-.082-30.718.686-53.17 1.487-8.18.292-21.714-.028-26.75.554-7.154.828-5.01 2.915-4.805 3.44.35.896 42.874-.183 53.116-.262 8.465-.064 27.028-.545 34.153-.863 3.236-.14 3.487-2.58 1.85-3.72-.982-.68-2.41-.56-4.394-.63zm10.665 10.608c-2.865-.07-37.98.613-64.913 1.515-6.27.21-27.75.56-32.52.91-4.606.338-2.88 1.01-3.463 1.385-1.1.704-1.585 1.533-1.386 1.963.416.895 50.516-.8 62.8-.924 12.287-.123 42.73-.58 44.704-.924 1.973-.344 1.123-3.765-5.222-3.925zm10.682 9.988c-3.314-.03-44.984 1.58-76.128 2.86-12.718.53-32.226-.15-39.42.63-8.345.9-3.353 3.26-3.092 3.73.486.89 58.215-.78 72.422-1.08 14.21-.3 45.48-1.25 47.765-1.63 2.28-.37 5.793-4.43-1.547-4.49zm30.073 31.13c-2.22-.01-46.035 1.68-86.162 2.93-19.75.62-39.6.67-49.87 1.15-8.04.38-18.71.55-27.29.83-4.98.17-10.4-.12-13 .46-2.5.57-2.24 3.48-1.98 3.96.5.89 119.33-2.7 133.54-3.07 14.21-.37 47.9-1.32 50.18-1.7 2.28-.38 1.94-4.5-5.4-4.53zm3.57 10.96c-14.95.52-47.648 1.5-78.04 2.45-19.753.62-39.603.67-49.873 1.15-12.713.6-44.174.45-51.365 1.26-8.34.95-4.64 3.79-4.378 4.27.492.88 132.8-2.98 147.008-3.35 11.487-.3 35.71-.98 45.767-1.43 2.38-.11 6.596-.72 5.183-2.85-1.058-1.59-9.514-1.64-14.303-1.47zM659 774.35c-14.948.52-47.646 1.494-78.038 2.447-19.753.62-39.603.662-49.874 1.142-12.712.59-44.173.44-51.364 1.25-8.338.94 6.52 3.55 6.783 4.03.492.88 121.64-2.75 135.847-3.13 11.487-.3 35.71-.98 45.766-1.43 2.382-.11 6.597-.72 5.184-2.85-1.058-1.6-9.514-1.64-14.303-1.47zm11.314 10.772c-14.95.52-47.648 1.494-78.04 2.447-19.753.62-39.603.66-49.873 1.14-9.38.43-34.4.57-46.92.88-4.44.11 4.84 4.56 8.93 4.53 25.52-.19 117.03-2.93 129.26-3.25 11.49-.31 36.69-1.02 46.75-1.47 2.38-.11 5.17-.91 3.76-3.04-.54-.83-1.37-1.19-4.34-1.38-2.78-.17-7.19.04-9.51.12zm12.468 10.706c-14.95.52-47.648 1.495-78.04 2.447-19.752.62-39.603.663-49.873 1.143-9.39.438-28.98.47-41.49.784-4.45.116-.6 4.666 3.49 4.637 25.51-.19 117.03-2.93 129.26-3.26 11.49-.31 36.69-1.02 46.75-1.47 2.38-.11 5.16-.9 3.75-3.04-.55-.83-1.38-1.19-4.34-1.37-2.78-.17-7.2.04-9.51.12zm-62.46-63.685c-2.04.015-35.316 1.43-68.753 2.59-29.75 1.03-56.29.39-59.73.69-5.64.49-3.39 1.61-3.72 2.173-.57.946-2.45 1.663-2.21 2.033.56.88 69.38-1.1 85.9-1.63 16.51-.52 54.45-1.53 57.1-1.94 2.11-.33.83-3.63-2.63-3.87-1.28-.09-4.23-.07-5.97-.06zm11.632 10.13c-2.04.028-35.29 2.127-68.734 3.04-31.022.85-80.118 1.19-83.554 1.516-5.63.52-3.374 1.63-3.708 2.2-.56.95.543 1.59.786 1.96.574.87 90.234-1.9 106.742-2.53 16.51-.64 54.44-1.89 57.09-2.32 2.105-.34.81-3.64-2.655-3.85-1.27-.08-4.23-.05-5.96-.02zm-70.81-72.495c-.73-.062-9.364-.294-16.184.147-6.013.39-9.775 1.32-9.27 3.093.238.835 12.77.724 15.884.8 3.115.072 10.802.006 11.792-.407 1.195-.5.696-3.38-2.22-3.63zm-7.124-9.985c-1.552-.478-5.326-.555-9.287-.235-3.49.28-6.498 1.19-5.368 2.43.444.487 7.42.642 9.23.717 1.81.073 4.915-.073 5.243-.23.985-.472 1.104-2.4.182-2.682zm107.576 170.324c-15.7.426-28.023.77-31.992.87-10.633.27-35.486 1.434-47.11 1.605-.937.012-6.69.6-4.5 2.436.93.778 2.653 1.708 5.443 1.778 2.784.07 7.194-.033 9.512-.11 12.01-.405 35.5-1.088 60.04-1.816 2.45-1.335 5.37-2.956 8.6-4.766zm12.252-6.94c2.748-1.567 5.548-3.173 8.334-4.77-31.25.79-63.324 1.7-70.22 1.874-10.63.27-35.484 1.43-47.11 1.6-.936.02-6.688.6-4.498 2.44.93.78 2.652 1.71 5.442 1.78 2.785.07 7.194-.03 9.512-.11 14.95-.5 47.65-1.44 78.043-2.35 6.97-.21 13.94-.34 20.5-.46zm20.29-11.662c2.956-1.71 5.753-3.33 8.286-4.8-35.954.688-102.635 2.598-112.95 2.858-10.632.27-38.56 1.47-50.186 1.64-.936.015-3.614.567-1.423 2.406.93.78 2.652 1.71 5.442 1.78 2.785.06 7.194-.04 9.512-.12 14.95-.5 47.65-1.44 78.04-2.36 19.75-.6 39.6-.62 49.87-1.08 3.4-.16 8.14-.26 13.4-.33zm-102.374 43.95c-3.31.198-108.73 1.63-139.898 1.918-12.727.12-32.176 1.78-39.4 1.37-8.38-.48-3.512-3.08-3.276-3.57.44-.912 58.18-2.15 72.385-2.57 14.206-.42 109.208-1.972 111.507-1.716 2.295.26 6.01 4.134-1.318 4.573zm-3.77-11.77c-2.035.09-80.228 1.016-113.68 1.543-29.76.47-89.352 2.71-92.802 2.586-5.65-.202-3.46-1.434-3.827-1.983-.61-.91-2.524-1.53-2.304-1.92.53-.9 102.47-2.66 118.99-2.97 16.52-.31 99.35-1.88 102.02-1.6 2.12.22 1.02 3.58-2.43 3.99-1.27.15-4.22.28-5.95.36zm-28.567-10.747c-2.036.09-80.228 1.014-113.68 1.54-29.76.47-89.352 2.713-92.802 2.59-5.652-.207-3.46-1.438-3.828-1.987-.61-.92-2.524-1.54-2.303-1.92.523-.91 102.47-2.67 118.987-2.97 16.52-.31 99.35-1.88 102.02-1.6 2.12.22 1.02 3.58-2.43 3.99-1.27.15-4.22.29-5.95.37zm-18.95-10.75c-2.037.09-80.23 1.015-113.68 1.543-29.76.47-89.353 2.71-92.803 2.59-5.652-.2-3.46-1.43-3.827-1.98-.61-.91-2.524-1.53-2.304-1.92.523-.91 102.47-2.66 118.987-2.97 16.518-.31 99.344-1.88 102.014-1.6 2.122.22 1.018 3.58-2.433 3.99-1.27.15-4.21.29-5.95.36zm-21.78-10.18c-2.037.09-80.23 1.014-113.68 1.54-29.76.47-89.353 2.713-92.803 2.59-5.652-.206-3.46-1.438-3.828-1.987-.61-.92-2.524-1.54-2.303-1.92.523-.91 102.47-2.67 118.987-2.98 16.518-.31 99.344-1.88 102.014-1.6 2.122.22 1.017 3.58-2.434 3.99-1.27.16-4.217.29-5.954.37zm8.943-175.25c-12.5.37-26.24.775-39.538 1.177-4.744.144-9.49.253-14.112.344-.52 1.24-1.17 2.79-1.915 4.56 24.637-.65 47.533-1.29 55.648-1.5-.023-1.76-.053-3.31-.082-4.58zm.13 11.33c-12.336.364-25.84.763-38.918 1.156-6.772.207-13.555.344-19.96.454-.636 1.5-1.292 3.044-1.956 4.604 26.078-.672 51.387-1.38 60.8-1.635.02-1.557.03-3.092.033-4.577zm-5.344-33.216c-2.02.085-4.03.176-5.957.27-5.28.256-10.02.646-12.67 1.347-2.41.63-2.98 1.58-2.9 2 .16.78 16.15.64 23.77.61-.75-1.52-1.52-2.94-2.26-4.24zm4.31 11.08c-4.57.07-15.78.454-25.03.905-5.273.256-10.01.646-12.664 1.347-2.412.64-2.98 1.58-2.892 2.01.187.898 21.358.577 26.57.61 3.703.024 11.2-.156 15.533-.38-.416-1.51-.935-3.018-1.516-4.495zm1.024 33.755c-4.145.09-7.756.19-10.62.327-8.8.415-29.015.476-41.814.746-.85.017-5.377.534-4.257 2.442.73 1.253 2.93 2.26 5.3 2.243 9.44-.074 30.67-.502 50.82-1.026l.56-4.74zm-1.648 11.393c-12.716.352-33.835.914-42.258 1.293-2.38.106-6.85.614-3.753 3.036.78.6 1.38 1.18 4.35 1.37 2.78.16 9.27-.05 11.59-.13 6.78-.24 17.23-.57 29.45-.95l.64-4.63zm-5.202 15.46c.49-1.536.97-3.135 1.436-4.74-34 .874-72.297 2.01-79.908 2.214-11.488.304-43.46 1.018-53.518 1.47-2.38.106-9.172.902-7.76 3.035.546.82 5.382 1.19 8.348 1.37 2.78.17 13.965-.04 16.282-.13 14.95-.52 47.647-1.5 78.04-2.45 13.31-.42 26.646-.57 37.08-.78zm-56.12 87.597c-29.404.642-91.696 2.074-112.687 2.98-4.084.174-7.695 4.912-3.25 4.8 12.512-.316 28.616-1.272 38.007-1.31 10.282-.038 30.11-.995 49.868-1.37 10.096-.194 20.443-.397 30.314-.59-1.208-1.688-1.91-3.19-2.252-4.51zm8.41 10.864l-7.212.17c-12.233.29-103.766 2.17-129.26 3.27-4.084.18-7.695 4.92-3.252 4.8 12.513-.32 32.08-1.27 41.473-1.31 10.28-.04 30.1-.99 49.86-1.37 18.84-.36 38.57-.75 54.41-1.06-2.35-1.59-4.34-3.08-6.03-4.49zm16.356 11.81c-11.404.2-26.115.53-34.324.73-14.207.34-135.385 2.82-135.83 3.73-.24.49-14.948 3.85-6.572 4.37 7.223.45 38.636-1.29 51.363-1.34 10.28-.04 30.11-.99 49.867-1.37 30.4-.58 63.107-1.25 78.064-1.49 1.644-.02 3.718-.1 5.773-.25-3.04-1.51-5.81-2.97-8.34-4.37zm-51.493-84.81c-12.715.35-29.812.92-38.273 1.3-2.38.11-5.167.91-3.753 3.04.545.82 1.375 1.19 4.34 1.37 2.78.17 7.196-.04 9.513-.12 6.576-.23 14.51-.54 26.25-.91.537-1.65 1.212-3.22 1.923-4.67zm-2.567 13.59c-8.316.26-16.26.52-20.93.73-2.382.11-5.168.91-3.754 3.04.545.83 1.375 1.19 4.34 1.37 2.78.17 7.195-.04 9.513-.12 3.15-.11 7.098-.24 11.638-.38-.543-1.51-.786-3.07-.807-4.63zm7.556 12.36c-3.822.13-11.323.26-13.77.37-2.38.11-5.166.91-3.752 3.04.545.82 1.375 1.19 4.34 1.37 2.78.17 11.35-.04 13.668-.12 3.134-.11 7.056-.23 11.564-.38-5.195-1.02-9.125-2.49-12.05-4.26zm43.328-22.81c4.845-.15 9.692-.27 14.403-.36 1.368-1.71 2.614-3.26 3.705-4.61-7.668.21-19.26.52-26.277.72.44 1.45.62 2.95.59 4.48 1.18-.04 6.42-.17 7.59-.21zm8.718 8.76c-4.975.14-11.9.4-16.102.52-.648 1.57-1.475 3.12-2.442 4.62 4.184-.13 10.68-.38 14.922-.52 1.234-1.58 2.447-3.12 3.622-4.61zm-9.954 12.81l-4.957.14c-2.39.07-8.93.01-12.246.11-2.47 2.05-5.15 3.73-7.85 4.87 5.5-.17 15.12-.22 21.51-.42 1.17-1.56 2.36-3.12 3.55-4.68zm-9.648 12.95c-8.674.25-15.093.44-17.755.51-11.48.31-38.76 1.02-48.82 1.47-2.38.11-5.16.9-3.75 3.04.55.83 1.38 1.19 4.34 1.37 2.78.17 5.12-.04 7.44-.12 10.55-.36 34.08-.96 55.25-1.61 1.05-1.5 2.16-3.05 3.31-4.64zm-8.536 12.46c-24.632.68-46.518 1.33-52.07 1.47-11.486.31-31.84 1.02-41.898 1.47-2.38.11-5.167.91-3.753 3.04.54.83 1.37 1.19 4.34 1.37 2.78.17 7.19-.04 9.51-.12 14.95-.52 42.8-1.49 73.19-2.44 2.67-.08 5.34-.15 8-.22.71-1.34 1.62-2.87 2.68-4.55zm-13.83-64.98c-5.078.15-8.817.25-10.692.3-11.488.31-40.69 1.02-50.748 1.47-2.38.11-5.166.91-3.753 3.04.546.83 1.375 1.19 4.34 1.37 2.78.17 11.195-.04 13.513-.12 8.587-.3 23.035-.75 39.535-1.25 2.317-2.75 5.004-4.21 7.804-4.8zm5.59-.16c4.22.55 8.31 2.41 11.42 4.2 4.57-.14 9.155-.28 13.69-.43 13.31-.41 22.193-.35 32.63-.56.49-1.53.97-3.13 1.433-4.74-22.79.59-43.056 1.07-59.172 1.54zm-93.235-21.86c-.844 1.33 7.693 3.68 15.675 3.21s17.857-.54 18.406-1.57c.548-1.02-1.645-3.16-5.453-3.27s-28.085.78-28.628 1.64zm35.105-14.62c-.844 1.32 7.693 3.68 15.675 3.2s14.46-.47 15.007-1.5c.548-1.02 1.754-3.23-2.054-3.34-3.81-.1-28.085.78-28.628 1.64zm11.967 10.9c-.843 1.32 7.693 3.68 15.675 3.21 7.982-.47 17.857-.55 18.406-1.57.548-1.02-1.645-3.16-5.453-3.27-3.81-.11-28.084.78-28.628 1.63zm-18.083-21.54c-.844 1.32 7.693 3.68 15.674 3.21 2.097-.12 4.324-.22 6.48-.31 6.047-.26 1.645-4.47-1.6-4.36-8.458.28-20.18.89-20.554 1.48zm-39.564 16.54c-.17.85 1.558 3.99 11.43 3.29 9.87-.69 13.332-.86 13.68-2.25s-1.386-2.42-9.352-2.42-15.585.52-15.758 1.39zm37.656-36.02c-6.265.31-11.93.73-12.188 1.13-.843 1.33 7.693 3.68 15.675 3.21.595-.04 1.2-.07 1.812-.1-2.038-1.64-3.85-3.09-5.3-4.24zm7.814 8.27c-6.09.31-11.504.71-11.758 1.11-.843 1.32 7.693 3.68 15.675 3.21.436-.02.877-.05 1.322-.07l-5.24-4.24z"/></svg>